<svg width="20" height="20" viewBox="0 0 20 20" fill="none" xmlns="http://www.w3.org/2000/svg">
<path d="M14.1665 8.33366H15.8332C17.4998 8.33366 18.3332 7.50033 18.3332 5.83366V4.16699C18.3332 2.50033 17.4998 1.66699 15.8332 1.66699H14.1665C12.4998 1.66699 11.6665 2.50033 11.6665 4.16699V5.83366C11.6665 7.50033 12.4998 8.33366 14.1665 8.33366Z" stroke="#404040" stroke-width="1.5" stroke-miterlimit="10" stroke-linecap="round" stroke-linejoin="round"/>
<path d="M14.1665 8.33366H15.8332C17.4998 8.33366 18.3332 7.50033 18.3332 5.83366V4.16699C18.3332 2.50033 17.4998 1.66699 15.8332 1.66699H14.1665C12.4998 1.66699 11.6665 2.50033 11.6665 4.16699V5.83366C11.6665 7.50033 12.4998 8.33366 14.1665 8.33366Z" stroke="black" stroke-opacity="0.2" stroke-width="1.5" stroke-miterlimit="10" stroke-linecap="round" stroke-linejoin="round"/>
<path d="M14.1665 8.33366H15.8332C17.4998 8.33366 18.3332 7.50033 18.3332 5.83366V4.16699C18.3332 2.50033 17.4998 1.66699 15.8332 1.66699H14.1665C12.4998 1.66699 11.6665 2.50033 11.6665 4.16699V5.83366C11.6665 7.50033 12.4998 8.33366 14.1665 8.33366Z" stroke="black" stroke-opacity="0.2" stroke-width="1.5" stroke-miterlimit="10" stroke-linecap="round" stroke-linejoin="round"/>
<path d="M14.1665 8.33366H15.8332C17.4998 8.33366 18.3332 7.50033 18.3332 5.83366V4.16699C18.3332 2.50033 17.4998 1.66699 15.8332 1.66699H14.1665C12.4998 1.66699 11.6665 2.50033 11.6665 4.16699V5.83366C11.6665 7.50033 12.4998 8.33366 14.1665 8.33366Z" stroke="black" stroke-opacity="0.2" stroke-width="1.5" stroke-miterlimit="10" stroke-linecap="round" stroke-linejoin="round"/>
<path d="M4.1665 18.3337H5.83317C7.49984 18.3337 8.33317 17.5003 8.33317 15.8337V14.167C8.33317 12.5003 7.49984 11.667 5.83317 11.667H4.1665C2.49984 11.667 1.6665 12.5003 1.6665 14.167V15.8337C1.6665 17.5003 2.49984 18.3337 4.1665 18.3337Z" stroke="#404040" stroke-width="1.5" stroke-miterlimit="10" stroke-linecap="round" stroke-linejoin="round"/>
<path d="M4.1665 18.3337H5.83317C7.49984 18.3337 8.33317 17.5003 8.33317 15.8337V14.167C8.33317 12.5003 7.49984 11.667 5.83317 11.667H4.1665C2.49984 11.667 1.6665 12.5003 1.6665 14.167V15.8337C1.6665 17.5003 2.49984 18.3337 4.1665 18.3337Z" stroke="black" stroke-opacity="0.2" stroke-width="1.5" stroke-miterlimit="10" stroke-linecap="round" stroke-linejoin="round"/>
<path d="M4.1665 18.3337H5.83317C7.49984 18.3337 8.33317 17.5003 8.33317 15.8337V14.167C8.33317 12.5003 7.49984 11.667 5.83317 11.667H4.1665C2.49984 11.667 1.6665 12.5003 1.6665 14.167V15.8337C1.6665 17.5003 2.49984 18.3337 4.1665 18.3337Z" stroke="black" stroke-opacity="0.2" stroke-width="1.5" stroke-miterlimit="10" stroke-linecap="round" stroke-linejoin="round"/>
<path d="M4.1665 18.3337H5.83317C7.49984 18.3337 8.33317 17.5003 8.33317 15.8337V14.167C8.33317 12.5003 7.49984 11.667 5.83317 11.667H4.1665C2.49984 11.667 1.6665 12.5003 1.6665 14.167V15.8337C1.6665 17.5003 2.49984 18.3337 4.1665 18.3337Z" stroke="black" stroke-opacity="0.2" stroke-width="1.5" stroke-miterlimit="10" stroke-linecap="round" stroke-linejoin="round"/>
<path d="M4.99984 8.33366C6.84079 8.33366 8.33317 6.84127 8.33317 5.00033C8.33317 3.15938 6.84079 1.66699 4.99984 1.66699C3.15889 1.66699 1.6665 3.15938 1.6665 5.00033C1.6665 6.84127 3.15889 8.33366 4.99984 8.33366Z" stroke="#404040" stroke-width="1.5" stroke-miterlimit="10" stroke-linecap="round" stroke-linejoin="round"/>
<path d="M4.99984 8.33366C6.84079 8.33366 8.33317 6.84127 8.33317 5.00033C8.33317 3.15938 6.84079 1.66699 4.99984 1.66699C3.15889 1.66699 1.6665 3.15938 1.6665 5.00033C1.6665 6.84127 3.15889 8.33366 4.99984 8.33366Z" stroke="black" stroke-opacity="0.2" stroke-width="1.5" stroke-miterlimit="10" stroke-linecap="round" stroke-linejoin="round"/>
<path d="M4.99984 8.33366C6.84079 8.33366 8.33317 6.84127 8.33317 5.00033C8.33317 3.15938 6.84079 1.66699 4.99984 1.66699C3.15889 1.66699 1.6665 3.15938 1.6665 5.00033C1.6665 6.84127 3.15889 8.33366 4.99984 8.33366Z" stroke="black" stroke-opacity="0.2" stroke-width="1.5" stroke-miterlimit="10" stroke-linecap="round" stroke-linejoin="round"/>
<path d="M4.99984 8.33366C6.84079 8.33366 8.33317 6.84127 8.33317 5.00033C8.33317 3.15938 6.84079 1.66699 4.99984 1.66699C3.15889 1.66699 1.6665 3.15938 1.6665 5.00033C1.6665 6.84127 3.15889 8.33366 4.99984 8.33366Z" stroke="black" stroke-opacity="0.2" stroke-width="1.5" stroke-miterlimit="10" stroke-linecap="round" stroke-linejoin="round"/>
<path d="M14.9998 18.3337C16.8408 18.3337 18.3332 16.8413 18.3332 15.0003C18.3332 13.1594 16.8408 11.667 14.9998 11.667C13.1589 11.667 11.6665 13.1594 11.6665 15.0003C11.6665 16.8413 13.1589 18.3337 14.9998 18.3337Z" stroke="#404040" stroke-width="1.5" stroke-miterlimit="10" stroke-linecap="round" stroke-linejoin="round"/>
<path d="M14.9998 18.3337C16.8408 18.3337 18.3332 16.8413 18.3332 15.0003C18.3332 13.1594 16.8408 11.667 14.9998 11.667C13.1589 11.667 11.6665 13.1594 11.6665 15.0003C11.6665 16.8413 13.1589 18.3337 14.9998 18.3337Z" stroke="black" stroke-opacity="0.2" stroke-width="1.5" stroke-miterlimit="10" stroke-linecap="round" stroke-linejoin="round"/>
<path d="M14.9998 18.3337C16.8408 18.3337 18.3332 16.8413 18.3332 15.0003C18.3332 13.1594 16.8408 11.667 14.9998 11.667C13.1589 11.667 11.6665 13.1594 11.6665 15.0003C11.6665 16.8413 13.1589 18.3337 14.9998 18.3337Z" stroke="black" stroke-opacity="0.2" stroke-width="1.5" stroke-miterlimit="10" stroke-linecap="round" stroke-linejoin="round"/>
<path d="M14.9998 18.3337C16.8408 18.3337 18.3332 16.8413 18.3332 15.0003C18.3332 13.1594 16.8408 11.667 14.9998 11.667C13.1589 11.667 11.6665 13.1594 11.6665 15.0003C11.6665 16.8413 13.1589 18.3337 14.9998 18.3337Z" stroke="black" stroke-opacity="0.2" stroke-width="1.5" stroke-miterlimit="10" stroke-linecap="round" stroke-linejoin="round"/>
</svg>
