<svg width="59" height="58" viewBox="0 0 59 58" fill="none" xmlns="http://www.w3.org/2000/svg">
<g clip-path="url(#clip0_814_16505)">
<path d="M29.8445 0C28.2586 0 26.9785 1.28008 26.9785 2.86602V11.9398C26.9785 13.5258 28.2586 14.8059 29.8445 14.8059C31.4305 14.8059 32.7105 13.5258 32.7105 11.9398V2.86602C32.7105 1.28008 31.4305 0 29.8445 0Z" fill="#008DD4"/>
<path d="M13.3837 8.49604C12.2282 7.41987 10.4157 7.47651 9.33955 8.63198C8.30869 9.73081 8.30869 11.4414 9.33955 12.5402L15.7513 18.9519C16.8728 20.0734 18.6853 20.0734 19.8067 18.9519C20.9282 17.8304 20.9282 16.0179 19.8067 14.8964L13.3837 8.49604Z" fill="#008DD4"/>
<path d="M3.70977 26.1338H12.7836C14.3695 26.1338 15.6496 27.4139 15.6496 28.9998C15.6496 30.5857 14.3695 31.8658 12.7836 31.8658H3.70977C2.12383 31.8658 0.84375 30.5857 0.84375 28.9998C0.84375 27.4139 2.12383 26.1338 3.70977 26.1338Z" fill="#008DD4"/>
<path d="M15.7509 39.0368L9.33916 45.4599C8.21768 46.5813 8.21768 48.3938 9.33916 49.504C10.4606 50.6255 12.2731 50.6255 13.3946 49.504L19.8063 43.0923C20.9165 41.9595 20.8938 40.147 19.7724 39.0368C18.6509 37.9493 16.8724 37.9493 15.7509 39.0368Z" fill="#008DD4"/>
<path d="M29.8445 43.2056C28.2586 43.2056 26.9785 44.4856 26.9785 46.0716V55.1454C26.9785 56.7313 28.2586 58.0114 29.8445 58.0114C31.4305 58.0114 32.7105 56.7313 32.7105 55.1454V46.0716C32.7105 44.4856 31.4305 43.2056 29.8445 43.2056Z" fill="#008DD4"/>
<path d="M43.9362 39.0368C42.8034 37.9266 40.9909 37.9493 39.8808 39.0708C38.7819 40.1809 38.7819 41.9708 39.8808 43.0809L46.2925 49.4927C47.414 50.6141 49.2265 50.6141 50.3366 49.4927C51.4581 48.3712 51.4581 46.5587 50.3366 45.4372L43.9362 39.0368Z" fill="#008DD4"/>
<path d="M46.9031 26.1338H55.977C57.5629 26.1338 58.843 27.4139 58.843 28.9998C58.843 30.5857 57.5629 31.8658 55.977 31.8658H46.9031C45.3172 31.8658 44.0371 30.5857 44.0371 28.9998C44.0484 27.4139 45.3285 26.1338 46.9031 26.1338Z" fill="#008DD4"/>
<path d="M39.88 18.9634C41.0015 20.0849 42.814 20.0849 43.9355 18.9634L50.3472 12.5517C51.4234 11.3962 51.3668 9.58369 50.2113 8.50752C49.1125 7.47666 47.4019 7.47666 46.3031 8.50752L39.8914 14.9192C38.7699 16.0294 38.7699 17.8419 39.88 18.9634Z" fill="#008DD4"/>
</g>
<defs>
<clipPath id="clip0_814_16505">
<rect width="58" height="58" fill="white" transform="translate(0.84375)"/>
</clipPath>
</defs>
</svg>
